<svg width="25" height="25" viewBox="0 0 25 25" fill="none" xmlns="http://www.w3.org/2000/svg">
    <path d="M8.61707 4.35447C6.51257 4.53936 4.50595 5.68678 3.15733 7.47588C2.02079 8.98764 0.764617 13.251 0.606915 16.1277C0.509031 17.9386 1.4498 19.2056 3.52168 20.0431C4.45157 20.4183 5.60443 20.6684 6.40925 20.663L6.70834 20.6576L7.27933 19.9506C7.59473 19.5591 7.88294 19.1947 7.92101 19.1404C7.98083 19.0534 7.9482 19.0316 7.56754 18.8957C6.5887 18.5531 5.62074 17.9603 4.96818 17.3132C4.73979 17.0848 4.56033 16.889 4.57665 16.8782C4.58752 16.8673 4.81592 16.9543 5.08238 17.0794C6.09385 17.547 7.7198 18.118 8.94335 18.4334C11.6352 19.1295 14.0496 19.1567 16.388 18.515C17.5245 18.205 18.7589 17.6721 19.8574 17.0195C20.113 16.8727 20.3414 16.7476 20.3686 16.7476C20.4501 16.7476 19.7486 17.422 19.3408 17.7265C18.8568 18.0908 17.9378 18.5694 17.3015 18.7923C17.0514 18.8793 16.8502 18.9663 16.8502 18.9881C16.8502 19.0099 17.1003 19.3361 17.4103 19.7168C17.7148 20.092 17.9922 20.44 18.0302 20.489C18.0846 20.5542 18.1934 20.5651 18.6556 20.5379C20.4012 20.44 22.4404 19.6461 23.3649 18.7053C24.2132 17.8461 24.5177 16.8401 24.36 15.4425C24.0066 12.3809 22.9244 8.95501 21.8477 7.50307C20.6078 5.82273 18.8622 4.76232 16.7958 4.4306C16.0236 4.31097 15.8659 4.32184 15.6865 4.50673L15.5396 4.659L15.8007 4.72969C16.7197 4.97984 18.449 5.72484 19.3136 6.24689C19.7595 6.51879 20.548 7.06803 20.4882 7.06803C20.4664 7.06803 20.2598 6.98102 20.026 6.87226C18.2967 6.07831 16.4369 5.55083 14.4847 5.28981C13.5874 5.17561 11.1185 5.15929 10.2702 5.26262C8.32342 5.50732 6.4745 5.99674 4.97906 6.66562C4.19599 7.01365 4.24493 6.99733 4.33738 6.88314C4.47876 6.71456 5.54461 6.03481 6.13191 5.74116C6.44731 5.57802 6.99111 5.33875 7.33371 5.2028C7.94276 4.95809 9.21525 4.56655 9.38927 4.56655C9.45452 4.56655 9.44365 4.53936 9.34576 4.4306C9.27507 4.35447 9.1935 4.30009 9.16087 4.30009C9.12824 4.30553 8.88353 4.32728 8.61707 4.35447ZM9.15543 11.5598C10.0092 11.7773 10.5965 12.4244 10.7596 13.3054C11.0098 14.7084 9.69923 16.0516 8.35061 15.7688C7.03462 15.4969 6.29505 14.0993 6.78447 12.8214C7.05637 12.1145 7.91013 11.5054 8.66601 11.4782C8.75846 11.4728 8.98142 11.5109 9.15543 11.5598ZM16.9916 11.6849C17.4756 11.9078 17.791 12.2232 18.0357 12.7127C18.226 13.1042 18.2369 13.1531 18.2369 13.6426C18.2314 14.2951 18.1009 14.6649 17.7148 15.0836C17.3885 15.4425 17.0786 15.6329 16.6272 15.7471C15.2514 16.1005 13.8702 14.7519 14.1258 13.3108C14.24 12.6637 14.5934 12.1254 15.1155 11.8154C15.7463 11.4402 16.3716 11.3967 16.9916 11.6849Z"
          fill="black"/>
</svg>
