<svg width="25" height="25" viewBox="0 0 25 25" fill="none" xmlns="http://www.w3.org/2000/svg">
    <g clip-path="url(#clip0_248_54)">
        <path d="M10.9576 0.764845C5.95105 1.36966 1.77496 4.99374 0.555728 9.78905C0.272522 10.9123 0.20052 11.4979 0.20052 12.7171C0.19572 13.3363 0.224521 13.9603 0.262922 14.2292C0.781334 17.9876 2.83578 21.0981 6.08065 23.0662C7.06948 23.6614 8.37991 24.2134 8.81672 24.2134C9.03272 24.2134 9.08072 24.1942 9.22473 24.0502C9.33033 23.9446 9.38793 23.839 9.39273 23.7478C9.40233 23.5558 9.37833 21.5973 9.37353 21.5925C9.36873 21.5877 9.17193 21.6165 8.93192 21.6549C8.41351 21.7365 7.62149 21.7125 7.20388 21.5973C6.65187 21.4533 6.23426 21.2181 5.86465 20.8389C5.55744 20.5365 5.47584 20.4069 5.17343 19.7973C4.77502 18.9861 4.51102 18.6261 4.06941 18.3188C3.38779 17.8388 3.27739 17.6276 3.6518 17.498C3.8006 17.45 3.91101 17.4452 4.14621 17.4836C4.79903 17.5892 5.38944 18.0068 5.85025 18.6885C6.42626 19.5429 6.90147 19.8741 7.71749 19.9893C8.0919 20.0421 8.60551 19.9845 9.08552 19.8405C9.42633 19.7349 9.42633 19.7349 9.55593 19.2117C9.64234 18.8757 9.87754 18.4292 10.0887 18.2084L10.2087 18.0836L9.90634 18.05C9.41193 17.9924 8.49991 17.786 8.0535 17.6276C7.24708 17.3444 6.72867 17.0372 6.15746 16.49C5.09183 15.4724 4.59262 13.9939 4.65022 12.0211C4.66942 11.3443 4.69342 11.1667 4.79903 10.7971C4.97183 10.2163 5.22144 9.72665 5.58624 9.24664C5.81665 8.93943 5.87425 8.83383 5.84065 8.76663C5.73985 8.57462 5.64384 7.96021 5.64384 7.5138C5.64384 7.00019 5.73025 6.46257 5.88385 5.99216C6.00385 5.64176 6.06625 5.61775 6.57987 5.68976C7.23268 5.78096 8.1639 6.16497 9.00872 6.69298C9.34953 6.90898 9.39273 6.92338 9.54153 6.88018C9.94474 6.76498 11.0248 6.59698 11.7016 6.54898C12.796 6.46737 14.284 6.59698 15.2393 6.85618L15.4985 6.92819L15.9353 6.65938C16.7753 6.14097 17.6537 5.78096 18.3113 5.68496C18.8297 5.61296 18.8729 5.63696 19.0074 6.06417C19.0698 6.26577 19.1466 6.59698 19.1802 6.80338C19.2618 7.29779 19.2186 8.20981 19.0986 8.58902L19.0074 8.87703L19.2282 9.14584C19.9482 10.0435 20.2458 10.9507 20.241 12.2419C20.2362 15.4628 18.7817 17.3012 15.7769 17.9012C15.4697 17.9588 15.0953 18.026 14.9417 18.0452L14.6633 18.0788L14.8313 18.2612C15.0377 18.4916 15.2537 18.9093 15.3689 19.2981C15.4409 19.5429 15.4553 19.8837 15.4793 21.7173C15.5033 23.3206 15.5225 23.8822 15.5705 23.959C15.6521 24.1078 15.8729 24.2134 16.0889 24.2134C16.5353 24.2134 18.2633 23.431 19.2522 22.7877C20.0442 22.2645 20.6874 21.7365 21.3402 21.0645C23.1882 19.1685 24.2923 16.8932 24.6571 14.2292C24.7531 13.5379 24.7387 11.7955 24.6331 11.0851C23.8075 5.61295 19.4442 1.41286 13.9096 0.764845C13.1704 0.678443 11.6824 0.678443 10.9576 0.764845Z"
              fill="black"/>
    </g>
    <defs>
        <clipPath id="clip0_248_54">
            <rect width="25" height="25" fill="white"/>
        </clipPath>
    </defs>
</svg>
