<svg width="25" height="25" viewBox="0 0 25 25" fill="none" xmlns="http://www.w3.org/2000/svg">
    <g clip-path="url(#clip0_248_58)">
        <path opacity="0.997" fill-rule="evenodd" clip-rule="evenodd"
              d="M13.5422 0.899902H11.4578C9.86299 1.06478 8.35259 1.52545 6.92656 2.28193C3.40219 4.33719 1.39333 7.39577 0.899994 11.4577V13.5421C1.06487 15.1369 1.52555 16.6473 2.28203 18.0733C4.33723 21.5977 7.39581 23.6065 11.4578 24.0999H13.5422C15.137 23.935 16.6474 23.4744 18.0734 22.7179C21.5978 20.6627 23.6066 17.6041 24.1 13.5421V11.4577C23.9351 9.8629 23.4745 8.35249 22.718 6.92647C20.6628 3.40212 17.6042 1.39326 13.5422 0.899902ZM18.1867 8.82959C18.3344 8.21597 18.1003 7.89878 17.4843 7.87803C13.8878 9.29613 10.2779 10.6932 6.65463 12.0694C6.37519 12.1727 6.10331 12.2935 5.83901 12.4319C5.50537 12.759 5.56577 13.0007 6.02026 13.1569L8.78432 14.0179C8.85985 14.0481 8.93534 14.0481 9.01088 14.0179L15.5359 9.89443C15.6328 9.83082 15.7385 9.79307 15.8531 9.78115C15.9746 9.76199 16.0274 9.8073 16.0117 9.91709C14.2127 11.5802 12.4002 13.2265 10.5742 14.8562C10.5045 15.8379 10.4365 16.8197 10.3703 17.8015C10.537 17.7901 10.688 17.7372 10.8234 17.6429C11.3156 17.1355 11.8216 16.6446 12.3413 16.1702C13.3277 16.8711 14.3019 17.5885 15.264 18.3226C15.5912 18.5037 15.8857 18.4659 16.1476 18.2093C16.8619 15.0909 17.5416 11.9644 18.1867 8.82959Z"
              fill="black"/>
    </g>
    <defs>
        <clipPath id="clip0_248_58">
            <rect width="25" height="25" fill="white"/>
        </clipPath>
    </defs>
</svg>
