<svg width="25" height="25" viewBox="0 0 25 25" fill="none" xmlns="http://www.w3.org/2000/svg">
    <path d="M3.3674 4.88112L2.70001 6.66618V13.8265V20.9909H5.15246H7.60491V22.3377V23.6846H8.96381H10.3187L11.6655 22.3377L13.0124 20.9909H15.0185H17.0207L19.7104 18.3334L22.4 15.6719V9.388V3.10008H13.2174H4.03881L3.3674 4.88112ZM20.623 9.81416L20.631 14.7392L19.0751 16.2951L17.5152 17.855H15.0427H12.5701L11.2434 19.1817C10.5157 19.9134 9.90458 20.5084 9.8885 20.5084C9.8684 20.5084 9.85634 19.9094 9.85634 19.1817V17.855H7.84613H5.83593V11.362V4.86906L13.2254 4.8771L20.6109 4.88916L20.623 9.81416Z"
          fill="black"/>
    <path d="M10.781 11.1609V13.8345H11.6655H12.55V11.1609V8.48733H11.6655H10.781V11.1609Z" fill="black"/>
    <path d="M15.6859 11.1609V13.8345H16.5905H17.4951V11.1609V8.48733H16.5905H15.6859V11.1609Z" fill="black"/>
</svg>
