<svg width="25" height="25" viewBox="0 0 25 25" fill="none" xmlns="http://www.w3.org/2000/svg">
    <path d="M21.8532 7.92968C21.8678 8.14015 21.8678 8.35063 21.8678 8.56305C21.8678 15.0354 16.9353 22.5001 7.91614 22.5001V22.4962C5.25184 22.5001 2.64289 21.7377 0.399994 20.3003C0.787404 20.3468 1.17676 20.3701 1.56708 20.3711C3.77503 20.373 5.91986 19.633 7.65689 18.2702C5.55867 18.2304 3.71871 16.8638 3.07594 14.8686C3.81095 15.0102 4.56829 14.9811 5.28971 14.7842C3.00215 14.3225 1.35638 12.3148 1.35638 9.98304V9.92096C2.03799 10.3002 2.80116 10.5107 3.58181 10.534C1.42726 9.09554 0.76313 6.23228 2.06421 3.99367C4.55373 7.05382 8.22684 8.91417 12.1699 9.11106C11.7747 7.40979 12.3146 5.62704 13.5884 4.43111C15.5634 2.57659 18.6694 2.67164 20.5259 4.64352C21.624 4.42723 22.6766 4.0247 23.6397 3.45438C23.2737 4.58824 22.5076 5.55139 21.4842 6.16342C22.4562 6.04897 23.4057 5.78902 24.3 5.39232C23.6417 6.37778 22.8125 7.23617 21.8532 7.92968Z"
          fill="black"/>
</svg>
