<svg width="25" height="25" viewBox="0 0 25 25" fill="none" xmlns="http://www.w3.org/2000/svg">
    <path d="M9.3366 5.23688C6.03157 5.31343 3.94229 5.49354 3.24886 5.7502C2.24925 6.12843 1.60535 6.94793 1.37121 8.15917C0.84889 10.8203 0.884912 16.4127 1.43425 18.6731C1.6774 19.6547 2.38433 20.4472 3.3119 20.7714C4.38356 21.1406 8.29646 21.3388 13.6818 21.2937C17.9504 21.2532 20.2423 21.1316 21.404 20.875C22.2505 20.6859 22.998 20.0915 23.3672 19.3035C23.7139 18.5741 23.8985 17.1782 24.0021 14.5621C24.0967 12.1396 23.9211 9.19031 23.6014 7.88901C23.4303 7.19108 23.0385 6.5742 22.5207 6.18246C22.1109 5.87627 21.6742 5.70066 21.0483 5.5926C19.2112 5.27741 14.0735 5.12431 9.3366 5.23688ZM13.182 11.5002C14.7804 12.4188 16.1178 13.1933 16.1448 13.2203C16.1898 13.2608 15.5279 13.6616 13.3531 14.9133C11.7906 15.8139 10.4398 16.5929 10.3632 16.6379L10.2146 16.7234V13.2743C10.2146 11.3787 10.2281 9.8252 10.2417 9.8252C10.2552 9.8252 11.579 10.5772 13.182 11.5002Z"
          fill="black"/>
</svg>
